<svg xmlns="http://www.w3.org/2000/svg" width="40" height="52" viewBox="0 0 40 52">
    <g fill="none" fill-rule="nonzero">
        <path fill="#263238" d="M24 30h8v2h-8zM24 36h8v2h-8z"/>
        <circle cx="20.03" cy="6" r="1.5" fill="#263238"/>
        <path fill="#263238" d="M40 12a4 4 0 0 0-4-4h-5.553a5.984 5.984 0 0 0-2.786-1.767 2.753 2.753 0 0 1-1.894-1.894 6.003 6.003 0 0 0-11.534 0 2.757 2.757 0 0 1-1.898 1.895A5.98 5.98 0 0 0 9.553 8H4a4 4 0 0 0-4 4v36a4 4 0 0 0 4 4h32a4 4 0 0 0 4-4V12zm-30-.032a4.022 4.022 0 0 1 2.889-3.812 4.746 4.746 0 0 0 3.266-3.265A4.017 4.017 0 0 1 20 2a4.017 4.017 0 0 1 3.845 2.891 4.74 4.74 0 0 0 3.264 3.264A4.017 4.017 0 0 1 29.998 12v2H10v-2.032zM36 50H4c-1.103 0-2-.897-2-2V12c0-1.103.897-2 2-2h4.343A5.984 5.984 0 0 0 8 11.952V16h24v-4c0-.702-.124-1.374-.346-2H36c1.103 0 2 .897 2 2v36c0 1.103-.897 2-2 2z"/>
        <path fill="#04B261" d="M23.977 21.886l-8.483 8.483-2.143-2.143-1.416 1.417 3.557 3.557L18 30.692V36h-8V26h6l2-2H8v14h12v-9.308l5.392-5.392z"/>
    </g>
</svg>
