<svg xmlns="http://www.w3.org/2000/svg" width="45" height="43" viewBox="0 0 45 43">
    <g fill="none" fill-rule="nonzero">
        <path fill="#263238" d="M44.692 15.123c-.005-.031.006-.063-.002-.093L41.118.742a.892.892 0 0 0-.866-.677H4.532a.892.892 0 0 0-.866.676L.094 15.03c-.008.031.003.062-.002.093-.006.043-.025.08-.025.124V42.036c0 .493.4.893.893.893h35.72c4.431 0 8.037-3.606 8.037-8.037V15.246c0-.044-.019-.081-.025-.123zm-12.477 1.91a4.47 4.47 0 0 1-4.465 4.464 4.47 4.47 0 0 1-4.465-4.465v-.893h8.93v.893zm-10.716 0a4.47 4.47 0 0 1-4.465 4.464 4.47 4.47 0 0 1-4.465-4.465v-.893h8.93v.893zm-10.716 0a4.47 4.47 0 0 1-4.465 4.464 4.47 4.47 0 0 1-4.465-4.465v-.893h8.93v.893zm21.432-2.68h-8.93V1.851h8.93v12.502zm-10.716 0h-8.93V1.851h8.93v12.502zm12.502 1.786h8.93v.893a4.47 4.47 0 0 1-4.465 4.465A4.47 4.47 0 0 1 34 17.032v-.893zm8.679-1.786H34V1.851h5.554l3.126 12.502zM5.23 1.851h5.553v12.502H2.104L5.23 1.851zm3.767 39.292V29.534h5.358v11.609H8.997zm33.934-6.251a6.258 6.258 0 0 1-6.251 6.251H16.14V28.641c0-.493-.4-.893-.893-.893H8.104c-.493 0-.893.4-.893.893v12.502H1.853V21.399a6.23 6.23 0 0 0 4.465 1.884 6.248 6.248 0 0 0 5.358-3.048 6.248 6.248 0 0 0 5.358 3.048 6.248 6.248 0 0 0 5.358-3.048 6.248 6.248 0 0 0 5.358 3.048 6.248 6.248 0 0 0 5.358-3.048 6.248 6.248 0 0 0 5.358 3.048A6.23 6.23 0 0 0 42.93 21.4v13.493z"/>
        <path fill="#04B261" d="M27.75 27.748h-5.358c-.493 0-.893.4-.893.893V34c0 .493.4.893.893.893h5.358c.493 0 .893-.4.893-.893v-5.358c0-.493-.4-.893-.893-.893zm-.893 5.358h-3.572v-3.572h3.572v3.572zM36.68 27.748h-5.358c-.493 0-.893.4-.893.893V34c0 .493.4.893.893.893h5.358c.493 0 .893-.4.893-.893v-5.358c0-.493-.4-.893-.893-.893zm-.893 5.358h-3.572v-3.572h3.572v3.572z"/>
    </g>
</svg>
