<svg xmlns="http://www.w3.org/2000/svg" width="50" height="50" viewBox="0 0 50 50">
    <g fill="none" fill-rule="nonzero">
        <path fill="#263238" d="M49.988 11.298v-.027a.781.781 0 0 0-.088-.312l-.003-.005a.774.774 0 0 0-.054-.087l-.016-.021a.787.787 0 0 0-.068-.08l-6.09-6.089L39.225.231a.799.799 0 0 0-.187-.138l-.008-.004a.733.733 0 0 0-.086-.038l-.027-.01a.763.763 0 0 0-.226-.04L38.666 0H11.758a.789.789 0 0 0-.79.789v18.404c-3.768.153-6.787 3.265-6.787 7.07v2.09a2.79 2.79 0 0 0 1.64 5.052l.02-.001a5.42 5.42 0 0 0 2.624 3.278v1.003L3.756 39.53C2.45 39.978.01 41.745.01 45.283v3.927c0 .436.353.79.789.79h3.49a.789.789 0 1 0 0-1.578h-2.7v-3.139c0-3.285 2.584-4.228 2.69-4.265a.71.71 0 0 0 .036-.013l4.325-1.694c.02.025.04.048.063.071l2.268 2.21a.789.789 0 0 0 .55.223h.013c.21-.003.41-.09.556-.242l2.218-2.301 4.316 1.73a.69.69 0 0 0 .043.016c.026.01 2.69.943 2.69 4.265v3.139H7.06a.789.789 0 1 0 0 1.578h15.087a.77.77 0 0 0 .218-.032h26.837a.789.789 0 0 0 .789-.789V11.324l-.002-.026zM39.455 2.694l2.468 2.468.631.631 2.714 2.714.001.001 2.027 2.027h-7.841V2.694zm8.957 45.696H22.935v-3.107c0-3.535-2.435-5.302-3.743-5.753l-4.59-1.84V36.68a5.42 5.42 0 0 0 2.624-3.276 2.79 2.79 0 1 0 1.637-5.043v-2.098c0-3.645-2.77-6.655-6.316-7.037V1.577h25.33v9.747c0 .436.353.79.789.79h9.746V48.39zM5.637 31.812a1.21 1.21 0 1 1-.639-2.09.786.786 0 0 0 .592-.302l.047-.007v2.399zm.792-4.589h-.003a.81.81 0 0 0-.08.005c-.009 0-.017.002-.026.003l-.053.008-.035.01-.04.01c-.014.004-.027.01-.04.015l-.033.011-.046.023-.022.01-.047.029-.018.01c-.015.01-.03.022-.044.033l-.017.013-.039.035-.017.016-.034.038-.017.018-.03.04-.015.02-.014.022v-1.328c0-3.033 2.468-5.5 5.5-5.5h.525c3.033 0 5.5 2.467 5.5 5.5v1.292l-.005-.007-.021-.028a.875.875 0 0 0-.107-.11l-.026-.021a.76.76 0 0 0-.034-.026l-.03-.019-.034-.02-.036-.019-.032-.015a.714.714 0 0 0-.044-.018l-.028-.01a.702.702 0 0 0-.05-.014l-.02-.006c-1.72-.39-2.258-2.614-2.263-2.633a.789.789 0 0 0-1.409-.288c-2.078 2.873-6.653 2.901-6.716 2.901zm6.596 11.013v.093l-1.521 1.578-1.461-1.423V37.24c.321.06.652.093.991.093h1c.338 0 .67-.033.991-.093v.996zm-.991-2.48h-1a3.823 3.823 0 0 1-3.819-3.82v-3.174c1.378-.119 4.25-.593 6.296-2.488.419.826 1.147 1.823 2.341 2.312v3.35a3.823 3.823 0 0 1-3.818 3.82zm5.396-3.95V29.42c.016.002.031.005.046.009.132.152.32.253.533.27a1.211 1.211 0 0 1-.579 2.108z"/>
        <path fill="#04B261" d="M21.259 15.12h12.45a.789.789 0 1 0 0-1.579H21.26a.789.789 0 1 0 0 1.578zM20.47 19.738c0 .436.353.789.789.789h18.808a.789.789 0 1 0 0-1.578H21.26a.789.789 0 0 0-.79.789zM40.067 24.356H21.26a.789.789 0 1 0 0 1.578h18.808a.789.789 0 1 0 0-1.578zM40.067 29.764H21.26a.789.789 0 1 0 0 1.578h18.808a.789.789 0 1 0 0-1.578zM40.067 35.171H21.26a.789.789 0 1 0 0 1.578h18.808a.789.789 0 1 0 0-1.578z"/>
    </g>
</svg>
