<svg xmlns="http://www.w3.org/2000/svg" width="50" height="50" viewBox="0 0 50 50">
    <g fill="none" fill-rule="nonzero">
        <path fill="#263238" d="M38.361 8.35c-2.12 0-4.143.557-5.93 1.62C32.006 4.401 27.338 0 21.66 0c-5.958 0-10.804 4.847-10.804 10.804 0 .955.123 1.89.365 2.797a9.113 9.113 0 0 0-2.087-.24C4.097 13.361 0 17.458 0 22.495c0 5.036 4.097 9.133 9.134 9.133h3.34a.783.783 0 0 0 0-1.565h-3.34c-4.173 0-7.568-3.395-7.568-7.568s3.395-7.568 7.568-7.568c1.054 0 2.077.214 3.04.637a.783.783 0 0 0 1.031-1.033 9.169 9.169 0 0 1-.783-3.727c0-5.094 4.144-9.238 9.238-9.238 5.094 0 9.238 4.144 9.238 9.238 0 .398-.113.848.183 1.172a.79.79 0 0 0 1.062.088 9.97 9.97 0 0 1 6.218-2.147c5.555 0 10.073 4.518 10.073 10.073 0 4.95-3.65 9.162-8.455 9.942V26.67c0-4.115-3.348-7.463-7.463-7.463a.783.783 0 0 0 0 1.565 5.904 5.904 0 0 1 5.897 5.898v3.393H16.65a.783.783 0 0 0 0 1.565h10.076c-.001.018-.003.035-.003.053v2.557h-.887a2.456 2.456 0 0 0-2.453 2.453v12.526c0 .432.35.783.783.783h11.691a.783.783 0 0 0 0-1.566H24.948V36.691c0-.49.398-.887.887-.887h15.032c.489 0 .887.398.887.887v11.743H40.03a.783.783 0 0 0 0 1.566h2.506c.432 0 .783-.35.783-.783V36.691c0-1.353-1.1-2.453-2.453-2.453h-.888v-2.722a11.598 11.598 0 0 0 6.903-3.598A11.6 11.6 0 0 0 50 19.99c0-6.418-5.221-11.64-11.639-11.64zm.052 25.888H28.288v-2.557c0-.018-.001-.035-.003-.053h10.128v2.61z"/>
        <path fill="#04B261" d="M33.35 37.578a3.292 3.292 0 0 0-3.287 3.288 3.294 3.294 0 0 0 2.505 3.194v1.817a.783.783 0 0 0 1.566 0V44.06a3.293 3.293 0 0 0 2.505-3.194 3.292 3.292 0 0 0-3.288-3.288zm0 5.01c-.949 0-1.722-.772-1.722-1.722s.773-1.722 1.723-1.722c.95 0 1.722.773 1.722 1.722 0 .95-.773 1.723-1.722 1.723zM30.01 13.361h-6.68a.783.783 0 0 0-.783.783v2.557h-.94v-2.557a.783.783 0 0 0-.782-.783h-4.176a.783.783 0 0 0-.783.783V25c0 .432.35.783.783.783H30.01c.433 0 .783-.35.783-.783V14.144a.783.783 0 0 0-.783-.783zm-.782 10.856H17.432v-9.29h2.61v2.557c0 .433.35.783.783.783h8.403v5.95zm0-7.516h-5.115v-1.774h5.115v1.774z"/>
    </g>
</svg>
