<svg xmlns="http://www.w3.org/2000/svg" width="39" height="57" viewBox="0 0 39 57">
    <g fill="none" fill-rule="nonzero">
        <path fill="#263238" d="M38.427 35.318a1.403 1.403 0 0 0-.279-.22 8.616 8.616 0 0 0-4.59-1.326 8.597 8.597 0 0 0-6.1 2.526l-1.528 1.526V17.28a4.33 4.33 0 0 0-4.319-4.319 4.33 4.33 0 0 0-4.318 4.319v9.5c-.788-.967-1.976-1.598-3.32-1.598-.936 0-1.797.307-2.503.814l-9.3 5.383A4.303 4.303 0 0 0 .02 35.1v7.102c0 7.721 6.257 13.978 13.978 13.978 3.74 0 7.127-1.476 9.634-3.869l.002.02.24-.24.01-.01 14.54-14.543a1.567 1.567 0 0 0 .003-2.22zM22.142 50.747a11.761 11.761 0 0 1-8.144 3.271c-6.516.002-11.82-5.3-11.82-11.817v-7.102c0-.76.404-1.448 1.082-1.843l9.466-5.504c.26-.186.687-.41 1.244-.41.864 0 1.403.503 1.65.803l3.832 4.694v-15.56c0-1.189.97-2.158 2.16-2.158 1.189 0 2.158.969 2.158 2.159v21.585c0 .921.582 1.695 1.397 2 .343.129.73.045.99-.215l2.826-2.826a6.423 6.423 0 0 1 4.573-1.893c.974 0 1.926.216 2.794.63L22.142 50.747z"/>
        <path fill="#04B261" d="M20.532 0h2.159v8.637h-2.159zM8.633 5.82l1.527-1.526 6.106 6.107-1.526 1.526zM4.338 16.194h8.637v2.159H4.338zM26.954 10.403l6.107-6.107 1.527 1.527-6.107 6.106zM30.248 16.194h8.637v2.159h-8.637z"/>
    </g>
</svg>
