<svg xmlns="http://www.w3.org/2000/svg" width="52" height="52" viewBox="0 0 52 52">
    <g fill="none" fill-rule="evenodd">
        <path fill="#04B261" fill-rule="nonzero" d="M37.267 45.091H39v1.733h-1.733zM40.733 45.091h1.733v1.733h-1.733zM44.2 45.091h1.733v1.733H44.2zM47.667 45.091H49.4v1.733h-1.733zM47.667 41.625H49.4v1.733h-1.733zM47.667 38.158H49.4v1.733h-1.733zM47.667 34.691H49.4v1.733h-1.733zM47.667 31.225H49.4v1.733h-1.733zM47.667 27.758H49.4v1.733h-1.733zM47.667 24.291H49.4v1.733h-1.733zM47.667 20.825H49.4v1.733h-1.733zM3.467 29.491H5.2v1.733H3.467zM3.467 26.025H5.2v1.733H3.467zM3.467 22.558H5.2v1.733H3.467zM3.467 19.091H5.2v1.733H3.467zM3.467 15.625H5.2v1.733H3.467zM3.467 12.158H5.2v1.733H3.467zM3.467 8.691H5.2v1.733H3.467zM3.467 5.225H5.2v1.733H3.467zM6.933 5.225h1.733v1.733H6.933zM10.4 5.225h1.733v1.733H10.4zM13.867 5.225H15.6v1.733h-1.733zM17.333 5.225h1.733v1.733h-1.733zM4.333 43.358h1.733v1.733H4.333z"/>
        <path fill="#04B261" d="M32.33 27.111c-.244.541-.612.944-1.104 1.208a4.078 4.078 0 0 1-1.552.476l2.64 5.14-1.814-.32-1.95-3.831a7.97 7.97 0 0 0-.526-.931.863.863 0 0 0-.582-.363l.185-1.05.85.15c.508.09.953.076 1.334-.04a1.46 1.46 0 0 0 .878-.728l-3.123-.55.648-1.148 2.72.48a1.25 1.25 0 0 0-.341-.802c-.205-.214-.507-.366-.907-.457l-1.726-.304.647-1.147 6.318 1.114-.648 1.147-1.842-.325c.127.349.178.704.154 1.066l1.942.342-.647 1.148-1.554-.275z"/>
        <path fill="#263238" fill-rule="nonzero" d="M51.133 5.225H39.867v-.867A4.338 4.338 0 0 0 35.533.025H24.267A.866.866 0 0 0 23.4.89c0 .934.254 1.821.71 2.6h-.71a2.603 2.603 0 0 0-2.6 2.6c0 .669.26 1.273.676 1.734a2.58 2.58 0 0 0-.676 1.733c0 .668.26 1.272.676 1.733a2.58 2.58 0 0 0-.676 1.734c0 .668.26 1.272.676 1.733a2.58 2.58 0 0 0-.676 1.733c0 1.434 1.167 2.6 2.6 2.6h1.487l-9.056 9.812a.87.87 0 0 0-.231.588v3.467H.867a.866.866 0 0 0-.867.867V47.69c0 .48.387.867.867.867h7.8c.479 0 .866-.387.866-.867v-.866h2.396l9.265 4.633a2.828 2.828 0 0 0 2.694-.086l18.907-11.03a2.84 2.84 0 0 0 1.405-2.446c0-.548-.172-1.068-.46-1.519l1.073-1.073a.863.863 0 0 0 .254-.613v-5.2a.87.87 0 0 0-.23-.588l-9.058-9.812h15.354c.48 0 .867-.387.867-.866V6.09a.866.866 0 0 0-.867-.866zM7.8 46.825H1.733V34.69H7.8v12.134zm15.6-41.6h5.2c.104 0 .201.026.294.06a.83.83 0 0 1 .263.156.873.873 0 0 1 .115.125.849.849 0 0 1 .195.525.867.867 0 0 1-.867.867h-5.2a.867.867 0 0 1 0-1.733zm0 3.466h5.2a.867.867 0 0 1 0 1.734h-5.2a.867.867 0 0 1 0-1.734zm0 3.467h5.2a.867.867 0 0 1 0 1.733h-5.2a.867.867 0 0 1 0-1.733zm0 5.2a.867.867 0 0 1 0-1.733h5.2a.867.867 0 0 1 0 1.733h-5.2zm18.522 21.486l-18.907 11.03c-.32.188-.711.2-1.045.033l-9.448-4.724a.864.864 0 0 0-.389-.092h-2.6v-10.4h8.308l6.829 6.829a1.586 1.586 0 0 1-2.241 2.241l-4.483-4.482-1.225 1.225 4.482 4.483c.627.626 1.46.971 2.346.971a3.322 3.322 0 0 0 3.318-3.318c0-.885-.345-1.719-.972-2.346l-.702-.702 15.985-2.78c.321-.056.647.032.896.242a1.097 1.097 0 0 1-.152 1.79zm1.411-9.014v4.503l-.94.94a2.822 2.822 0 0 0-1.511-.168l-17.187 2.989-4.882-4.882a.863.863 0 0 0-.613-.254h-.867V29.83l9.913-10.739H28.6c1.433 0 2.6-1.166 2.6-2.6 0-.668-.26-1.272-.676-1.733a2.58 2.58 0 0 0 .676-1.733c0-.668-.26-1.273-.676-1.734a2.58 2.58 0 0 0 .676-1.733c0-.668-.26-1.272-.676-1.733.093-.103.181-.21.257-.328a6.09 6.09 0 0 0 2.153 2.698v8.03a.87.87 0 0 0 .23.588l10.17 11.017zm-2.6-12.472h-6.066v-6.322c.55.164 1.13.255 1.733.255V9.558a4.338 4.338 0 0 1-4.333-4.333.866.866 0 0 0-.867-.867h-.67c-.007-.007-.015-.011-.02-.018a2.588 2.588 0 0 0-.347-.314c-.017-.013-.032-.028-.049-.04a2.581 2.581 0 0 0-.429-.25l-.03-.017a2.588 2.588 0 0 0-.481-.16l-.03-.009a2.622 2.622 0 0 0-.544-.059h-2.272a3.437 3.437 0 0 1-1.084-1.733h10.29c1.433 0 2.6 1.167 2.6 2.6v1.733c0 .48.387.867.866.867h1.733v10.4zm3.467 0h-1.733v-10.4H44.2v10.4zm6.067 0h-4.334v-10.4h4.334v10.4z"/>
    </g>
</svg>
